<svg width="114" height="52" viewBox="0 0 114 52" fill="none" xmlns="http://www.w3.org/2000/svg">
<path d="M1.824 16V4.8H2.8L10.528 14.528H10.016V4.8H11.184V16H10.208L2.496 6.272H3.008V16H1.824ZM19.8636 16V14.144L19.8156 13.84V10.736C19.8156 10.0213 19.613 9.472 19.2076 9.088C18.813 8.704 18.221 8.512 17.4316 8.512C16.8876 8.512 16.3703 8.60267 15.8796 8.784C15.389 8.96533 14.973 9.20533 14.6316 9.504L14.1196 8.656C14.5463 8.29333 15.0583 8.016 15.6556 7.824C16.253 7.62133 16.8823 7.52 17.5436 7.52C18.6316 7.52 19.469 7.792 20.0556 8.336C20.653 8.86933 20.9516 9.68533 20.9516 10.784V16H19.8636ZM16.9676 16.08C16.3383 16.08 15.789 15.9787 15.3196 15.776C14.861 15.5627 14.509 15.2747 14.2636 14.912C14.0183 14.5387 13.8956 14.112 13.8956 13.632C13.8956 13.1947 13.997 12.8 14.1996 12.448C14.413 12.0853 14.7543 11.7973 15.2236 11.584C15.7036 11.36 16.3436 11.248 17.1436 11.248H20.0396V12.096H17.1756C16.365 12.096 15.7996 12.24 15.4796 12.528C15.1703 12.816 15.0156 13.1733 15.0156 13.6C15.0156 14.08 15.2023 14.464 15.5756 14.752C15.949 15.04 16.4716 15.184 17.1436 15.184C17.7836 15.184 18.333 15.04 18.7916 14.752C19.261 14.4533 19.6023 14.0267 19.8156 13.472L20.0716 14.256C19.8583 14.8107 19.485 15.2533 18.9516 15.584C18.429 15.9147 17.7676 16.08 16.9676 16.08ZM34.5331 7.52C35.2158 7.52 35.8078 7.65333 36.3091 7.92C36.8211 8.176 37.2158 8.57067 37.4931 9.104C37.7811 9.63733 37.9251 10.3093 37.9251 11.12V16H36.7891V11.232C36.7891 10.3467 36.5758 9.68 36.1491 9.232C35.7331 8.77333 35.1411 8.544 34.3731 8.544C33.7971 8.544 33.2958 8.66667 32.8691 8.912C32.4531 9.14667 32.1278 9.49333 31.8931 9.952C31.6691 10.4 31.5571 10.944 31.5571 11.584V16H30.4211V11.232C30.4211 10.3467 30.2078 9.68 29.7811 9.232C29.3545 8.77333 28.7571 8.544 27.9891 8.544C27.4238 8.544 26.9278 8.66667 26.5011 8.912C26.0745 9.14667 25.7438 9.49333 25.5091 9.952C25.2851 10.4 25.1731 10.944 25.1731 11.584V16H24.0371V7.6H25.1251V9.872L24.9491 9.472C25.2051 8.864 25.6158 8.38933 26.1811 8.048C26.7571 7.696 27.4345 7.52 28.2131 7.52C29.0345 7.52 29.7331 7.728 30.3091 8.144C30.8851 8.54933 31.2585 9.16267 31.4291 9.984L30.9811 9.808C31.2265 9.12533 31.6585 8.576 32.2771 8.16C32.9065 7.73333 33.6585 7.52 34.5331 7.52ZM44.5739 16.08C43.6992 16.08 42.9312 15.8987 42.2699 15.536C41.6085 15.1627 41.0912 14.656 40.7179 14.016C40.3445 13.3653 40.1579 12.624 40.1579 11.792C40.1579 10.96 40.3339 10.224 40.6859 9.584C41.0485 8.944 41.5392 8.44267 42.1579 8.08C42.7872 7.70667 43.4912 7.52 44.2699 7.52C45.0592 7.52 45.7579 7.70133 46.3659 8.064C46.9845 8.416 47.4699 8.91733 47.8219 9.568C48.1739 10.208 48.3499 10.9493 48.3499 11.792C48.3499 11.8453 48.3445 11.904 48.3339 11.968C48.3339 12.0213 48.3339 12.08 48.3339 12.144H41.0219V11.296H47.7259L47.2779 11.632C47.2779 11.024 47.1445 10.4853 46.8779 10.016C46.6219 9.536 46.2699 9.16267 45.8219 8.896C45.3739 8.62933 44.8565 8.496 44.2699 8.496C43.6939 8.496 43.1765 8.62933 42.7179 8.896C42.2592 9.16267 41.9019 9.536 41.6459 10.016C41.3899 10.496 41.2619 11.0453 41.2619 11.664V11.84C41.2619 12.48 41.4005 13.0453 41.6779 13.536C41.9659 14.016 42.3605 14.3947 42.8619 14.672C43.3739 14.9387 43.9552 15.072 44.6059 15.072C45.1179 15.072 45.5925 14.9813 46.0299 14.8C46.4779 14.6187 46.8619 14.3413 47.1819 13.968L47.8219 14.704C47.4485 15.152 46.9792 15.4933 46.4139 15.728C45.8592 15.9627 45.2459 16.08 44.5739 16.08ZM58.3376 16.08C57.5056 16.08 56.759 15.8987 56.0976 15.536C55.447 15.1627 54.935 14.656 54.5616 14.016C54.1883 13.3653 54.0016 12.624 54.0016 11.792C54.0016 10.9493 54.1883 10.208 54.5616 9.568C54.935 8.928 55.447 8.42667 56.0976 8.064C56.759 7.70133 57.5056 7.52 58.3376 7.52C59.0523 7.52 59.6976 7.65867 60.2736 7.936C60.8496 8.21333 61.303 8.62933 61.6336 9.184L60.7856 9.76C60.4976 9.33333 60.1403 9.01867 59.7136 8.816C59.287 8.61333 58.823 8.512 58.3216 8.512C57.7243 8.512 57.1856 8.65067 56.7056 8.928C56.2256 9.19467 55.847 9.57333 55.5696 10.064C55.2923 10.5547 55.1536 11.1307 55.1536 11.792C55.1536 12.4533 55.2923 13.0293 55.5696 13.52C55.847 14.0107 56.2256 14.3947 56.7056 14.672C57.1856 14.9387 57.7243 15.072 58.3216 15.072C58.823 15.072 59.287 14.9707 59.7136 14.768C60.1403 14.5653 60.4976 14.256 60.7856 13.84L61.6336 14.416C61.303 14.96 60.8496 15.376 60.2736 15.664C59.6976 15.9413 59.0523 16.08 58.3376 16.08ZM69.1293 16V14.144L69.0813 13.84V10.736C69.0813 10.0213 68.8786 9.472 68.4733 9.088C68.0786 8.704 67.4866 8.512 66.6973 8.512C66.1533 8.512 65.6359 8.60267 65.1453 8.784C64.6546 8.96533 64.2386 9.20533 63.8973 9.504L63.3853 8.656C63.8119 8.29333 64.3239 8.016 64.9213 7.824C65.5186 7.62133 66.1479 7.52 66.8093 7.52C67.8973 7.52 68.7346 7.792 69.3213 8.336C69.9186 8.86933 70.2173 9.68533 70.2173 10.784V16H69.1293ZM66.2333 16.08C65.6039 16.08 65.0546 15.9787 64.5853 15.776C64.1266 15.5627 63.7746 15.2747 63.5293 14.912C63.2839 14.5387 63.1613 14.112 63.1613 13.632C63.1613 13.1947 63.2626 12.8 63.4653 12.448C63.6786 12.0853 64.0199 11.7973 64.4893 11.584C64.9693 11.36 65.6093 11.248 66.4093 11.248H69.3053V12.096H66.4413C65.6306 12.096 65.0653 12.24 64.7453 12.528C64.4359 12.816 64.2812 13.1733 64.2812 13.6C64.2812 14.08 64.4679 14.464 64.8413 14.752C65.2146 15.04 65.7373 15.184 66.4093 15.184C67.0493 15.184 67.5986 15.04 68.0573 14.752C68.5266 14.4533 68.8679 14.0267 69.0813 13.472L69.3373 14.256C69.1239 14.8107 68.7506 15.2533 68.2173 15.584C67.6946 15.9147 67.0333 16.08 66.2333 16.08ZM73.3028 16V7.6H74.3908V9.888L74.2788 9.488C74.5134 8.848 74.9081 8.36267 75.4628 8.032C76.0174 7.69067 76.7054 7.52 77.5268 7.52V8.624C77.4841 8.624 77.4414 8.624 77.3988 8.624C77.3561 8.61333 77.3134 8.608 77.2708 8.608C76.3854 8.608 75.6921 8.88 75.1908 9.424C74.6894 9.95733 74.4388 10.72 74.4388 11.712V16H73.3028ZM82.8655 16.08C82.0655 16.08 81.3455 15.8987 80.7055 15.536C80.0762 15.1733 79.5802 14.672 79.2175 14.032C78.8548 13.3813 78.6735 12.6347 78.6735 11.792C78.6735 10.9387 78.8548 10.192 79.2175 9.552C79.5802 8.912 80.0762 8.416 80.7055 8.064C81.3455 7.70133 82.0655 7.52 82.8655 7.52C83.6015 7.52 84.2575 7.68533 84.8335 8.016C85.4202 8.34667 85.8842 8.832 86.2255 9.472C86.5775 10.1013 86.7535 10.8747 86.7535 11.792C86.7535 12.6987 86.5828 13.472 86.2415 14.112C85.9002 14.752 85.4362 15.2427 84.8495 15.584C84.2735 15.9147 83.6122 16.08 82.8655 16.08ZM82.9455 15.072C83.5428 15.072 84.0762 14.9387 84.5455 14.672C85.0255 14.3947 85.3988 14.0107 85.6655 13.52C85.9428 13.0187 86.0815 12.4427 86.0815 11.792C86.0815 11.1307 85.9428 10.5547 85.6655 10.064C85.3988 9.57333 85.0255 9.19467 84.5455 8.928C84.0762 8.65067 83.5428 8.512 82.9455 8.512C82.3588 8.512 81.8308 8.65067 81.3615 8.928C80.8922 9.19467 80.5188 9.57333 80.2415 10.064C79.9642 10.5547 79.8255 11.1307 79.8255 11.792C79.8255 12.4427 79.9642 13.0187 80.2415 13.52C80.5188 14.0107 80.8922 14.3947 81.3615 14.672C81.8308 14.9387 82.3588 15.072 82.9455 15.072ZM86.1135 16V13.472L86.2255 11.776L86.0655 10.08V4.128H87.2015V16H86.1135Z" fill="white"/>
<path d="M6.18 47.16C9.88 47.16 11.6 45.32 11.6 43.18C11.6 38.04 3.12 40.18 3.12 36.76C3.12 35.54 4.14 34.54 6.52 34.54C7.76 34.54 9.14 34.9 10.36 35.68L11.02 34.08C9.86 33.28 8.16 32.84 6.52 32.84C2.84 32.84 1.16 34.68 1.16 36.84C1.16 42.04 9.64 39.88 9.64 43.3C9.64 44.52 8.6 45.46 6.18 45.46C4.38 45.46 2.6 44.78 1.56 43.84L0.82 45.4C1.94 46.44 4.04 47.16 6.18 47.16ZM21.5466 36.4L17.8866 44.88L14.1866 36.4H12.1866L16.8666 46.98L16.5266 47.72C16.0066 48.94 15.4266 49.36 14.5066 49.36C13.7866 49.36 13.1266 49.08 12.6066 48.58L11.7866 50.02C12.4466 50.66 13.4866 51 14.5066 51C16.1266 51 17.3466 50.3 18.2866 48.06L23.4266 36.4H21.5466ZM28.7464 36.3C27.0464 36.3 25.4664 36.78 24.3664 37.66L25.1664 39.1C25.9864 38.4 27.2664 37.96 28.5264 37.96C30.4264 37.96 31.3664 38.9 31.3664 40.52V40.9H28.3264C25.1664 40.9 24.0664 42.3 24.0664 44C24.0664 45.84 25.5864 47.12 27.9864 47.12C29.6464 47.12 30.8264 46.56 31.4664 45.6V47H33.2864V40.6C33.2864 37.7 31.6464 36.3 28.7464 36.3ZM28.3064 45.64C26.8464 45.64 25.9664 44.98 25.9664 43.92C25.9664 43.02 26.5064 42.28 28.4064 42.28H31.3664V43.76C30.8864 44.98 29.7464 45.64 28.3064 45.64ZM42.4995 36.3C40.8795 36.3 39.5595 36.88 38.7595 37.9V32.16H36.8395V47H38.7595V41.54C38.7595 39.24 40.0795 38.02 42.1195 38.02C43.9395 38.02 44.9795 39.04 44.9795 41.12V47H46.8995V40.9C46.8995 37.78 45.0795 36.3 42.4995 36.3ZM65.5239 39.74C66.6239 39.2 67.4039 38.14 67.4039 36.62C67.4039 34.36 65.6039 33 62.3839 33H56.1039V47H62.7839C66.3239 47 68.1439 45.62 68.1439 43.22C68.1439 41.36 67.1039 40.18 65.5239 39.74ZM62.2039 34.62C64.2439 34.62 65.4039 35.38 65.4039 36.86C65.4039 38.34 64.2439 39.1 62.2039 39.1H58.1039V34.62H62.2039ZM62.7039 45.38H58.1039V40.72H62.7039C64.9239 40.72 66.1239 41.44 66.1239 43.06C66.1239 44.68 64.9239 45.38 62.7039 45.38ZM74.8206 36.3C73.1206 36.3 71.5406 36.78 70.4406 37.66L71.2406 39.1C72.0606 38.4 73.3406 37.96 74.6006 37.96C76.5006 37.96 77.4406 38.9 77.4406 40.52V40.9H74.4006C71.2406 40.9 70.1406 42.3 70.1406 44C70.1406 45.84 71.6606 47.12 74.0606 47.12C75.7206 47.12 76.9006 46.56 77.5406 45.6V47H79.3606V40.6C79.3606 37.7 77.7206 36.3 74.8206 36.3ZM74.3806 45.64C72.9206 45.64 72.0406 44.98 72.0406 43.92C72.0406 43.02 72.5806 42.28 74.4806 42.28H77.4406V43.76C76.9606 44.98 75.8206 45.64 74.3806 45.64ZM88.5738 36.3C86.8938 36.3 85.5338 36.92 84.7538 38V36.4H82.9138V47H84.8338V41.54C84.8338 39.24 86.1538 38.02 88.1938 38.02C90.0138 38.02 91.0538 39.04 91.0538 41.12V47H92.9738V40.9C92.9738 37.78 91.1538 36.3 88.5738 36.3ZM104.666 32.16V38C103.786 36.86 102.466 36.3 100.966 36.3C97.8656 36.3 95.6056 38.46 95.6056 41.7C95.6056 44.94 97.8656 47.12 100.966 47.12C102.526 47.12 103.886 46.52 104.746 45.32V47H106.586V32.16H104.666ZM101.126 45.44C99.0856 45.44 97.5456 43.96 97.5456 41.7C97.5456 39.44 99.0856 37.98 101.126 37.98C103.146 37.98 104.686 39.44 104.686 41.7C104.686 43.96 103.146 45.44 101.126 45.44ZM111.178 34.36C111.938 34.36 112.478 33.8 112.478 33.08C112.478 32.4 111.918 31.86 111.178 31.86C110.438 31.86 109.878 32.42 109.878 33.12C109.878 33.82 110.438 34.36 111.178 34.36ZM110.218 47H112.138V36.4H110.218V47Z" fill="white"/>
</svg>
